<svg xmlns="http://www.w3.org/2000/svg" width="1920" height="1080" viewBox="0 0 1920 1080">
    <rect width="1920" height="1080" fill="#fbfaf7"/>
    <rect x="64" y="64" width="1792" height="952" rx="42" fill="#fffdf8" stroke="#dedbd2" stroke-width="2"/>
    <text x="140" y="148" font-family="Inter, 'SF Pro Display', -apple-system, BlinkMacSystemFont, 'Segoe UI', sans-serif" font-size="24" font-weight="800" fill="#6f46ff" >REROLL</text>
    <text x="140" y="232" font-family="Inter, 'SF Pro Display', -apple-system, BlinkMacSystemFont, 'Segoe UI', sans-serif" font-size="78" font-weight="900" fill="#151515" >Refresh a board without duplicating.</text>
    <text x="144" y="286" font-family="Inter, 'SF Pro Display', -apple-system, BlinkMacSystemFont, 'Segoe UI', sans-serif" font-size="30" font-weight="650" fill="#68635b" >Select a generated ScatterBoard and rearrange its existing contents.</text>
    <rect x="180" y="340" width="560" height="500" rx="28" fill="#fffdf8" stroke="#ddd6c9" stroke-width="2"/>
<text x="220" y="402" font-family="Inter, 'SF Pro Display', -apple-system, BlinkMacSystemFont, 'Segoe UI', sans-serif" font-size="28" font-weight="800" fill="#191714" >ScatterBoard</text>
<text x="220" y="436" font-family="Inter, 'SF Pro Display', -apple-system, BlinkMacSystemFont, 'Segoe UI', sans-serif" font-size="19" font-weight="600" fill="#777067" >36 generated pieces</text>
<g transform="translate(340.0 546.3) rotate(-4.4)">
      <rect width="88.0" height="104.3" rx="12" fill="#7c4dff" opacity="0.92"/>
      <rect x="10" y="10" width="68.0" height="8" rx="4" fill="#ffffff" opacity="0.74"/>
      <rect x="10" y="26" width="45.8" height="8" rx="4" fill="#ffffff" opacity="0.48"/>
    </g>
<g transform="translate(359.5 638.1) rotate(-0.8)">
      <rect width="125.6" height="62.7" rx="12" fill="#26a69a" opacity="0.92"/>
      <rect x="10" y="10" width="105.6" height="8" rx="4" fill="#ffffff" opacity="0.74"/>
      <rect x="10" y="26" width="65.3" height="8" rx="4" fill="#ffffff" opacity="0.48"/>
    </g>
<g transform="translate(553.6 566.3) rotate(1.5)">
      <rect width="123.7" height="62.7" rx="12" fill="#ff7043" opacity="0.92"/>
      <rect x="10" y="10" width="103.7" height="8" rx="4" fill="#ffffff" opacity="0.74"/>
      <rect x="10" y="26" width="64.3" height="8" rx="4" fill="#ffffff" opacity="0.48"/>
    </g>
<g transform="translate(605.3 698.2) rotate(14.7)">
      <rect width="120.7" height="58.6" rx="12" fill="#ffca28" opacity="0.92"/>
      <rect x="10" y="10" width="100.7" height="8" rx="4" fill="#ffffff" opacity="0.74"/>
      <rect x="10" y="26" width="62.8" height="8" rx="4" fill="#ffffff" opacity="0.48"/>
    </g>
<g transform="translate(373.6 497.7) rotate(13.9)">
      <rect width="96.5" height="85.0" rx="12" fill="#42a5f5" opacity="0.92"/>
      <rect x="10" y="10" width="76.5" height="8" rx="4" fill="#ffffff" opacity="0.74"/>
      <rect x="10" y="26" width="50.2" height="8" rx="4" fill="#ffffff" opacity="0.48"/>
    </g>
<g transform="translate(584.5 698.0) rotate(0.2)">
      <rect width="129.9" height="54.5" rx="12" fill="#ec407a" opacity="0.92"/>
      <rect x="10" y="10" width="109.9" height="8" rx="4" fill="#ffffff" opacity="0.74"/>
      <rect x="10" y="26" width="67.6" height="8" rx="4" fill="#ffffff" opacity="0.48"/>
    </g>
<g transform="translate(538.9 505.8) rotate(-14.2)">
      <rect width="67.1" height="69.1" rx="12" fill="#66bb6a" opacity="0.92"/>
      <rect x="10" y="10" width="47.1" height="8" rx="4" fill="#ffffff" opacity="0.74"/>
      <rect x="10" y="26" width="34.9" height="8" rx="4" fill="#ffffff" opacity="0.48"/>
    </g>
<g transform="translate(269.2 733.7) rotate(-3.6)">
      <rect width="78.5" height="85.8" rx="12" fill="#7c4dff" opacity="0.92"/>
      <rect x="10" y="10" width="58.5" height="8" rx="4" fill="#ffffff" opacity="0.74"/>
      <rect x="10" y="26" width="40.8" height="8" rx="4" fill="#ffffff" opacity="0.48"/>
    </g>
<g transform="translate(401.1 599.4) rotate(-17.6)">
      <rect width="59.1" height="54.8" rx="12" fill="#26a69a" opacity="0.92"/>
      <rect x="10" y="10" width="39.1" height="8" rx="4" fill="#ffffff" opacity="0.74"/>
      <rect x="10" y="26" width="30.7" height="8" rx="4" fill="#ffffff" opacity="0.48"/>
    </g>
<g transform="translate(293.4 522.7) rotate(-10.7)">
      <rect width="129.1" height="50.7" rx="12" fill="#ff7043" opacity="0.92"/>
      <rect x="10" y="10" width="109.1" height="8" rx="4" fill="#ffffff" opacity="0.74"/>
      <rect x="10" y="26" width="67.1" height="8" rx="4" fill="#ffffff" opacity="0.48"/>
    </g>
<g transform="translate(436.8 627.4) rotate(-10.8)">
      <rect width="100.3" height="59.0" rx="12" fill="#ffca28" opacity="0.92"/>
      <rect x="10" y="10" width="80.3" height="8" rx="4" fill="#ffffff" opacity="0.74"/>
      <rect x="10" y="26" width="52.2" height="8" rx="4" fill="#ffffff" opacity="0.48"/>
    </g>
<g transform="translate(312.8 545.5) rotate(9.9)">
      <rect width="63.2" height="50.5" rx="12" fill="#42a5f5" opacity="0.92"/>
      <rect x="10" y="10" width="43.2" height="8" rx="4" fill="#ffffff" opacity="0.74"/>
      <rect x="10" y="26" width="32.9" height="8" rx="4" fill="#ffffff" opacity="0.48"/>
    </g>
<g transform="translate(448.6 550.7) rotate(-11.5)">
      <rect width="64.9" height="82.7" rx="12" fill="#ec407a" opacity="0.92"/>
      <rect x="10" y="10" width="44.9" height="8" rx="4" fill="#ffffff" opacity="0.74"/>
      <rect x="10" y="26" width="33.8" height="8" rx="4" fill="#ffffff" opacity="0.48"/>
    </g>
<g transform="translate(646.9 544.3) rotate(-8.3)">
      <rect width="84.3" height="94.4" rx="12" fill="#66bb6a" opacity="0.92"/>
      <rect x="10" y="10" width="64.3" height="8" rx="4" fill="#ffffff" opacity="0.74"/>
      <rect x="10" y="26" width="43.8" height="8" rx="4" fill="#ffffff" opacity="0.48"/>
    </g>
<g transform="translate(256.9 732.8) rotate(-10.2)">
      <rect width="131.6" height="59.9" rx="12" fill="#7c4dff" opacity="0.92"/>
      <rect x="10" y="10" width="111.6" height="8" rx="4" fill="#ffffff" opacity="0.74"/>
      <rect x="10" y="26" width="68.4" height="8" rx="4" fill="#ffffff" opacity="0.48"/>
    </g>
<g transform="translate(485.3 556.1) rotate(-9.3)">
      <rect width="96.0" height="52.9" rx="12" fill="#26a69a" opacity="0.92"/>
      <rect x="10" y="10" width="76.0" height="8" rx="4" fill="#ffffff" opacity="0.74"/>
      <rect x="10" y="26" width="49.9" height="8" rx="4" fill="#ffffff" opacity="0.48"/>
    </g>
<g transform="translate(247.4 494.9) rotate(14.2)">
      <rect width="100.3" height="54.5" rx="12" fill="#ff7043" opacity="0.92"/>
      <rect x="10" y="10" width="80.3" height="8" rx="4" fill="#ffffff" opacity="0.74"/>
      <rect x="10" y="26" width="52.2" height="8" rx="4" fill="#ffffff" opacity="0.48"/>
    </g>
<g transform="translate(517.7 549.4) rotate(14.6)">
      <rect width="128.6" height="55.4" rx="12" fill="#ffca28" opacity="0.92"/>
      <rect x="10" y="10" width="108.6" height="8" rx="4" fill="#ffffff" opacity="0.74"/>
      <rect x="10" y="26" width="66.9" height="8" rx="4" fill="#ffffff" opacity="0.48"/>
    </g>
<g transform="translate(346.3 570.7) rotate(-14.8)">
      <rect width="117.3" height="104.0" rx="12" fill="#42a5f5" opacity="0.92"/>
      <rect x="10" y="10" width="97.3" height="8" rx="4" fill="#ffffff" opacity="0.74"/>
      <rect x="10" y="26" width="61.0" height="8" rx="4" fill="#ffffff" opacity="0.48"/>
    </g>
<g transform="translate(364.1 713.6) rotate(4.7)">
      <rect width="96.7" height="80.2" rx="12" fill="#ec407a" opacity="0.92"/>
      <rect x="10" y="10" width="76.7" height="8" rx="4" fill="#ffffff" opacity="0.74"/>
      <rect x="10" y="26" width="50.3" height="8" rx="4" fill="#ffffff" opacity="0.48"/>
    </g>
<g transform="translate(604.3 720.7) rotate(-3.7)">
      <rect width="65.9" height="99.0" rx="12" fill="#66bb6a" opacity="0.92"/>
      <rect x="10" y="10" width="45.9" height="8" rx="4" fill="#ffffff" opacity="0.74"/>
      <rect x="10" y="26" width="34.2" height="8" rx="4" fill="#ffffff" opacity="0.48"/>
    </g>
<g transform="translate(556.4 655.7) rotate(-15.9)">
      <rect width="58.8" height="69.5" rx="12" fill="#7c4dff" opacity="0.92"/>
      <rect x="10" y="10" width="38.8" height="8" rx="4" fill="#ffffff" opacity="0.74"/>
      <rect x="10" y="26" width="30.6" height="8" rx="4" fill="#ffffff" opacity="0.48"/>
    </g>
<g transform="translate(560.5 479.2) rotate(-9.8)">
      <rect width="94.8" height="108.6" rx="12" fill="#26a69a" opacity="0.92"/>
      <rect x="10" y="10" width="74.8" height="8" rx="4" fill="#ffffff" opacity="0.74"/>
      <rect x="10" y="26" width="49.3" height="8" rx="4" fill="#ffffff" opacity="0.48"/>
    </g>
<g transform="translate(249.0 579.7) rotate(9.4)">
      <rect width="69.6" height="98.5" rx="12" fill="#ff7043" opacity="0.92"/>
      <rect x="10" y="10" width="49.6" height="8" rx="4" fill="#ffffff" opacity="0.74"/>
      <rect x="10" y="26" width="36.2" height="8" rx="4" fill="#ffffff" opacity="0.48"/>
    </g>
<g transform="translate(606.0 568.0) rotate(-16.7)">
      <rect width="130.0" height="89.6" rx="12" fill="#ffca28" opacity="0.92"/>
      <rect x="10" y="10" width="110.0" height="8" rx="4" fill="#ffffff" opacity="0.74"/>
      <rect x="10" y="26" width="67.6" height="8" rx="4" fill="#ffffff" opacity="0.48"/>
    </g>
<g transform="translate(368.3 754.3) rotate(14.1)">
      <rect width="69.9" height="50.9" rx="12" fill="#42a5f5" opacity="0.92"/>
      <rect x="10" y="10" width="49.9" height="8" rx="4" fill="#ffffff" opacity="0.74"/>
      <rect x="10" y="26" width="36.4" height="8" rx="4" fill="#ffffff" opacity="0.48"/>
    </g>
<g transform="translate(359.6 730.1) rotate(-11.2)">
      <rect width="57.1" height="68.9" rx="12" fill="#ec407a" opacity="0.92"/>
      <rect x="10" y="10" width="37.1" height="8" rx="4" fill="#ffffff" opacity="0.74"/>
      <rect x="10" y="26" width="29.7" height="8" rx="4" fill="#ffffff" opacity="0.48"/>
    </g>
<g transform="translate(293.1 549.7) rotate(5.3)">
      <rect width="126.4" height="103.0" rx="12" fill="#66bb6a" opacity="0.92"/>
      <rect x="10" y="10" width="106.4" height="8" rx="4" fill="#ffffff" opacity="0.74"/>
      <rect x="10" y="26" width="65.7" height="8" rx="4" fill="#ffffff" opacity="0.48"/>
    </g>
     <text x="230" y="895" font-family="Inter, 'SF Pro Display', -apple-system, BlinkMacSystemFont, 'Segoe UI', sans-serif" font-size="28" font-weight="900" fill="#151515" >Existing ScatterBoard</text>
     <rect x="835" y="560" width="250" height="58" rx="12" fill="#26a69a"/><text x="863" y="598" font-family="Inter, 'SF Pro Display', -apple-system, BlinkMacSystemFont, 'Segoe UI', sans-serif" font-size="22" font-weight="800" fill="#ffffff" >Reroll</text>
     <path d="M765 590 C805 560 815 548 835 536" fill="none" stroke="#151515" stroke-width="6" stroke-linecap="round"/>
     <path d="M1095 590 C1140 560 1160 548 1180 536" fill="none" stroke="#151515" stroke-width="6" stroke-linecap="round"/>
     <rect x="1180" y="340" width="560" height="500" rx="28" fill="#fffdf8" stroke="#ddd6c9" stroke-width="2"/>
<text x="1220" y="402" font-family="Inter, 'SF Pro Display', -apple-system, BlinkMacSystemFont, 'Segoe UI', sans-serif" font-size="28" font-weight="800" fill="#191714" >ScatterBoard</text>
<text x="1220" y="436" font-family="Inter, 'SF Pro Display', -apple-system, BlinkMacSystemFont, 'Segoe UI', sans-serif" font-size="19" font-weight="600" fill="#777067" >36 generated pieces</text>
<g transform="translate(1341.8 545.6) rotate(7.5)">
      <rect width="131.6" height="62.8" rx="12" fill="#7c4dff" opacity="0.92"/>
      <rect x="10" y="10" width="111.6" height="8" rx="4" fill="#ffffff" opacity="0.74"/>
      <rect x="10" y="26" width="68.4" height="8" rx="4" fill="#ffffff" opacity="0.48"/>
    </g>
<g transform="translate(1451.6 557.9) rotate(-14.1)">
      <rect width="132.0" height="104.4" rx="12" fill="#26a69a" opacity="0.92"/>
      <rect x="10" y="10" width="112.0" height="8" rx="4" fill="#ffffff" opacity="0.74"/>
      <rect x="10" y="26" width="68.6" height="8" rx="4" fill="#ffffff" opacity="0.48"/>
    </g>
<g transform="translate(1549.9 731.5) rotate(-16.1)">
      <rect width="102.8" height="95.6" rx="12" fill="#ff7043" opacity="0.92"/>
      <rect x="10" y="10" width="82.8" height="8" rx="4" fill="#ffffff" opacity="0.74"/>
      <rect x="10" y="26" width="53.5" height="8" rx="4" fill="#ffffff" opacity="0.48"/>
    </g>
<g transform="translate(1247.4 600.4) rotate(5.9)">
      <rect width="134.4" height="78.5" rx="12" fill="#ffca28" opacity="0.92"/>
      <rect x="10" y="10" width="114.4" height="8" rx="4" fill="#ffffff" opacity="0.74"/>
      <rect x="10" y="26" width="69.9" height="8" rx="4" fill="#ffffff" opacity="0.48"/>
    </g>
<g transform="translate(1620.4 556.9) rotate(-11.6)">
      <rect width="127.0" height="70.2" rx="12" fill="#42a5f5" opacity="0.92"/>
      <rect x="10" y="10" width="107.0" height="8" rx="4" fill="#ffffff" opacity="0.74"/>
      <rect x="10" y="26" width="66.1" height="8" rx="4" fill="#ffffff" opacity="0.48"/>
    </g>
<g transform="translate(1527.1 571.7) rotate(-7.4)">
      <rect width="83.8" height="48.1" rx="12" fill="#ec407a" opacity="0.92"/>
      <rect x="10" y="10" width="63.8" height="8" rx="4" fill="#ffffff" opacity="0.74"/>
      <rect x="10" y="26" width="43.6" height="8" rx="4" fill="#ffffff" opacity="0.48"/>
    </g>
<g transform="translate(1319.0 724.7) rotate(-0.9)">
      <rect width="116.0" height="46.1" rx="12" fill="#66bb6a" opacity="0.92"/>
      <rect x="10" y="10" width="96.0" height="8" rx="4" fill="#ffffff" opacity="0.74"/>
      <rect x="10" y="26" width="60.3" height="8" rx="4" fill="#ffffff" opacity="0.48"/>
    </g>
<g transform="translate(1330.8 554.6) rotate(-17.6)">
      <rect width="81.9" height="77.6" rx="12" fill="#7c4dff" opacity="0.92"/>
      <rect x="10" y="10" width="61.9" height="8" rx="4" fill="#ffffff" opacity="0.74"/>
      <rect x="10" y="26" width="42.6" height="8" rx="4" fill="#ffffff" opacity="0.48"/>
    </g>
<g transform="translate(1424.7 533.0) rotate(5.6)">
      <rect width="71.8" height="63.3" rx="12" fill="#26a69a" opacity="0.92"/>
      <rect x="10" y="10" width="51.8" height="8" rx="4" fill="#ffffff" opacity="0.74"/>
      <rect x="10" y="26" width="37.3" height="8" rx="4" fill="#ffffff" opacity="0.48"/>
    </g>
<g transform="translate(1289.3 636.5) rotate(-14.5)">
      <rect width="60.4" height="70.0" rx="12" fill="#ff7043" opacity="0.92"/>
      <rect x="10" y="10" width="40.4" height="8" rx="4" fill="#ffffff" opacity="0.74"/>
      <rect x="10" y="26" width="31.4" height="8" rx="4" fill="#ffffff" opacity="0.48"/>
    </g>
<g transform="translate(1484.2 769.4) rotate(15.1)">
      <rect width="63.8" height="100.9" rx="12" fill="#ffca28" opacity="0.92"/>
      <rect x="10" y="10" width="43.8" height="8" rx="4" fill="#ffffff" opacity="0.74"/>
      <rect x="10" y="26" width="33.2" height="8" rx="4" fill="#ffffff" opacity="0.48"/>
    </g>
<g transform="translate(1527.1 736.7) rotate(13.4)">
      <rect width="80.4" height="75.8" rx="12" fill="#42a5f5" opacity="0.92"/>
      <rect x="10" y="10" width="60.4" height="8" rx="4" fill="#ffffff" opacity="0.74"/>
      <rect x="10" y="26" width="41.8" height="8" rx="4" fill="#ffffff" opacity="0.48"/>
    </g>
<g transform="translate(1496.6 595.8) rotate(9.1)">
      <rect width="64.5" height="62.3" rx="12" fill="#ec407a" opacity="0.92"/>
      <rect x="10" y="10" width="44.5" height="8" rx="4" fill="#ffffff" opacity="0.74"/>
      <rect x="10" y="26" width="33.6" height="8" rx="4" fill="#ffffff" opacity="0.48"/>
    </g>
<g transform="translate(1335.6 542.3) rotate(5.3)">
      <rect width="127.1" height="60.0" rx="12" fill="#66bb6a" opacity="0.92"/>
      <rect x="10" y="10" width="107.1" height="8" rx="4" fill="#ffffff" opacity="0.74"/>
      <rect x="10" y="26" width="66.1" height="8" rx="4" fill="#ffffff" opacity="0.48"/>
    </g>
<g transform="translate(1429.9 629.2) rotate(-13.2)">
      <rect width="121.4" height="82.2" rx="12" fill="#7c4dff" opacity="0.92"/>
      <rect x="10" y="10" width="101.4" height="8" rx="4" fill="#ffffff" opacity="0.74"/>
      <rect x="10" y="26" width="63.1" height="8" rx="4" fill="#ffffff" opacity="0.48"/>
    </g>
<g transform="translate(1578.3 592.6) rotate(-5.4)">
      <rect width="129.4" height="59.0" rx="12" fill="#26a69a" opacity="0.92"/>
      <rect x="10" y="10" width="109.4" height="8" rx="4" fill="#ffffff" opacity="0.74"/>
      <rect x="10" y="26" width="67.3" height="8" rx="4" fill="#ffffff" opacity="0.48"/>
    </g>
<g transform="translate(1404.5 764.2) rotate(-11.5)">
      <rect width="131.8" height="48.8" rx="12" fill="#ff7043" opacity="0.92"/>
      <rect x="10" y="10" width="111.8" height="8" rx="4" fill="#ffffff" opacity="0.74"/>
      <rect x="10" y="26" width="68.5" height="8" rx="4" fill="#ffffff" opacity="0.48"/>
    </g>
<g transform="translate(1252.6 662.7) rotate(-5.8)">
      <rect width="55.1" height="102.6" rx="12" fill="#ffca28" opacity="0.92"/>
      <rect x="10" y="10" width="35.1" height="8" rx="4" fill="#ffffff" opacity="0.74"/>
      <rect x="10" y="26" width="28.6" height="8" rx="4" fill="#ffffff" opacity="0.48"/>
    </g>
<g transform="translate(1472.9 720.9) rotate(-11.3)">
      <rect width="101.3" height="86.6" rx="12" fill="#42a5f5" opacity="0.92"/>
      <rect x="10" y="10" width="81.3" height="8" rx="4" fill="#ffffff" opacity="0.74"/>
      <rect x="10" y="26" width="52.7" height="8" rx="4" fill="#ffffff" opacity="0.48"/>
    </g>
<g transform="translate(1532.6 535.8) rotate(-6.0)">
      <rect width="133.8" height="102.4" rx="12" fill="#ec407a" opacity="0.92"/>
      <rect x="10" y="10" width="113.8" height="8" rx="4" fill="#ffffff" opacity="0.74"/>
      <rect x="10" y="26" width="69.6" height="8" rx="4" fill="#ffffff" opacity="0.48"/>
    </g>
<g transform="translate(1253.0 624.6) rotate(15.5)">
      <rect width="108.3" height="68.6" rx="12" fill="#66bb6a" opacity="0.92"/>
      <rect x="10" y="10" width="88.3" height="8" rx="4" fill="#ffffff" opacity="0.74"/>
      <rect x="10" y="26" width="56.3" height="8" rx="4" fill="#ffffff" opacity="0.48"/>
    </g>
<g transform="translate(1462.3 516.5) rotate(10.1)">
      <rect width="115.9" height="101.5" rx="12" fill="#7c4dff" opacity="0.92"/>
      <rect x="10" y="10" width="95.9" height="8" rx="4" fill="#ffffff" opacity="0.74"/>
      <rect x="10" y="26" width="60.2" height="8" rx="4" fill="#ffffff" opacity="0.48"/>
    </g>
<g transform="translate(1536.6 700.4) rotate(-1.7)">
      <rect width="92.5" height="103.4" rx="12" fill="#26a69a" opacity="0.92"/>
      <rect x="10" y="10" width="72.5" height="8" rx="4" fill="#ffffff" opacity="0.74"/>
      <rect x="10" y="26" width="48.1" height="8" rx="4" fill="#ffffff" opacity="0.48"/>
    </g>
<g transform="translate(1313.4 679.7) rotate(16.6)">
      <rect width="111.0" height="111.5" rx="12" fill="#ff7043" opacity="0.92"/>
      <rect x="10" y="10" width="91.0" height="8" rx="4" fill="#ffffff" opacity="0.74"/>
      <rect x="10" y="26" width="57.7" height="8" rx="4" fill="#ffffff" opacity="0.48"/>
    </g>
<g transform="translate(1365.9 620.9) rotate(-8.5)">
      <rect width="124.5" height="110.2" rx="12" fill="#ffca28" opacity="0.92"/>
      <rect x="10" y="10" width="104.5" height="8" rx="4" fill="#ffffff" opacity="0.74"/>
      <rect x="10" y="26" width="64.7" height="8" rx="4" fill="#ffffff" opacity="0.48"/>
    </g>
<g transform="translate(1449.8 678.6) rotate(-13.3)">
      <rect width="62.1" height="93.0" rx="12" fill="#42a5f5" opacity="0.92"/>
      <rect x="10" y="10" width="42.1" height="8" rx="4" fill="#ffffff" opacity="0.74"/>
      <rect x="10" y="26" width="32.3" height="8" rx="4" fill="#ffffff" opacity="0.48"/>
    </g>
<g transform="translate(1644.9 591.0) rotate(16.4)">
      <rect width="124.2" height="42.1" rx="12" fill="#ec407a" opacity="0.92"/>
      <rect x="10" y="10" width="104.2" height="8" rx="4" fill="#ffffff" opacity="0.74"/>
      <rect x="10" y="26" width="64.6" height="8" rx="4" fill="#ffffff" opacity="0.48"/>
    </g>
<g transform="translate(1426.1 690.7) rotate(7.7)">
      <rect width="115.7" height="87.1" rx="12" fill="#66bb6a" opacity="0.92"/>
      <rect x="10" y="10" width="95.7" height="8" rx="4" fill="#ffffff" opacity="0.74"/>
      <rect x="10" y="26" width="60.2" height="8" rx="4" fill="#ffffff" opacity="0.48"/>
    </g>
     <text x="1225" y="895" font-family="Inter, 'SF Pro Display', -apple-system, BlinkMacSystemFont, 'Segoe UI', sans-serif" font-size="28" font-weight="900" fill="#151515" >Same pieces, new layout</text>
     <rect x="742" y="730" width="486" height="42" rx="21" fill="#ece6ff"/><text x="764" y="758" font-family="Inter, 'SF Pro Display', -apple-system, BlinkMacSystemFont, 'Segoe UI', sans-serif" font-size="20" font-weight="700" fill="#5b2dcb" >Relaunch buttons supported</text>
  </svg>