<svg xmlns="http://www.w3.org/2000/svg" width="1920" height="1080" viewBox="0 0 1920 1080">
    <rect width="1920" height="1080" fill="#fbfaf7"/>
    <rect x="64" y="64" width="1792" height="952" rx="42" fill="#fffdf8" stroke="#dedbd2" stroke-width="2"/>
    <text x="140" y="148" font-family="Inter, 'SF Pro Display', -apple-system, BlinkMacSystemFont, 'Segoe UI', sans-serif" font-size="24" font-weight="800" fill="#6f46ff" >WORKFLOW</text>
    <text x="140" y="232" font-family="Inter, 'SF Pro Display', -apple-system, BlinkMacSystemFont, 'Segoe UI', sans-serif" font-size="78" font-weight="900" fill="#151515" >Select. Tune. Generate.</text>
    <text x="144" y="286" font-family="Inter, 'SF Pro Display', -apple-system, BlinkMacSystemFont, 'Segoe UI', sans-serif" font-size="30" font-weight="650" fill="#68635b" >Turn a few source layers into a ready-to-edit board.</text>
    <rect x="150" y="350" width="420" height="420" rx="28" fill="#ffffff" stroke="#dedbd2" stroke-width="2"/>
     <text x="198" y="432" font-family="Inter, 'SF Pro Display', -apple-system, BlinkMacSystemFont, 'Segoe UI', sans-serif" font-size="32" font-weight="900" fill="#151515" >1. Select layers</text>
     <rect x="198" y="486" width="197" height="42" rx="21" fill="#ece6ff"/><text x="220" y="514" font-family="Inter, 'SF Pro Display', -apple-system, BlinkMacSystemFont, 'Segoe UI', sans-serif" font-size="20" font-weight="700" fill="#5b2dcb" >Component</text>
     <rect x="198" y="546" width="129" height="42" rx="21" fill="#e7f6f3"/><text x="220" y="574" font-family="Inter, 'SF Pro Display', -apple-system, BlinkMacSystemFont, 'Segoe UI', sans-serif" font-size="20" font-weight="700" fill="#11756c" >Frame</text>
     <rect x="198" y="606" width="112" height="42" rx="21" fill="#fff1dc"/><text x="220" y="634" font-family="Inter, 'SF Pro Display', -apple-system, BlinkMacSystemFont, 'Segoe UI', sans-serif" font-size="20" font-weight="700" fill="#9a5200" >Text</text>
     <rect x="750" y="350" width="420" height="420" rx="28" fill="#ffffff" stroke="#dedbd2" stroke-width="2"/>
     <text x="798" y="432" font-family="Inter, 'SF Pro Display', -apple-system, BlinkMacSystemFont, 'Segoe UI', sans-serif" font-size="32" font-weight="900" fill="#151515" >2. Tune controls</text>
     <rect x="798" y="476" width="330" height="260" rx="22" fill="#ffffff" stroke="#dedbd2" stroke-width="2"/>
<rect x="798" y="476" width="330" height="66" rx="22" fill="#191714"/>
<text x="826" y="519" font-family="Inter, 'SF Pro Display', -apple-system, BlinkMacSystemFont, 'Segoe UI', sans-serif" font-size="28" font-weight="900" fill="#ffffff" >MagicBits</text>
<text x="826" y="588" font-family="Inter, 'SF Pro Display', -apple-system, BlinkMacSystemFont, 'Segoe UI', sans-serif" font-size="22" font-weight="850" fill="#191714" >Layout: Organic</text>
<rect x="826" y="612" width="274" height="9" rx="4.5" fill="#eee9df"/>
<rect x="826" y="612" width="170" height="9" rx="4.5" fill="#7c4dff"/>
<text x="826" y="660" font-family="Inter, 'SF Pro Display', -apple-system, BlinkMacSystemFont, 'Segoe UI', sans-serif" font-size="22" font-weight="850" fill="#191714" >Copies: 36</text>
<rect x="826" y="684" width="274" height="9" rx="4.5" fill="#eee9df"/>
<rect x="826" y="684" width="220" height="9" rx="4.5" fill="#26a69a"/>
     <rect x="1350" y="300" width="390" height="390" rx="28" fill="#fffdf8" stroke="#ddd6c9" stroke-width="2"/>
<text x="1390" y="362" font-family="Inter, 'SF Pro Display', -apple-system, BlinkMacSystemFont, 'Segoe UI', sans-serif" font-size="28" font-weight="800" fill="#191714" >ScatterBoard</text>
<text x="1390" y="396" font-family="Inter, 'SF Pro Display', -apple-system, BlinkMacSystemFont, 'Segoe UI', sans-serif" font-size="19" font-weight="600" fill="#777067" >36 generated pieces</text>
<g transform="translate(1466.7 476.8) rotate(-16.3)">
      <rect width="126.4" height="75.8" rx="12" fill="#7c4dff" opacity="0.92"/>
      <rect x="10" y="10" width="106.4" height="8" rx="4" fill="#ffffff" opacity="0.74"/>
      <rect x="10" y="26" width="65.7" height="8" rx="4" fill="#ffffff" opacity="0.48"/>
    </g>
<g transform="translate(1425.1 587.3) rotate(12.4)">
      <rect width="119.2" height="91.0" rx="12" fill="#26a69a" opacity="0.92"/>
      <rect x="10" y="10" width="99.2" height="8" rx="4" fill="#ffffff" opacity="0.74"/>
      <rect x="10" y="26" width="62.0" height="8" rx="4" fill="#ffffff" opacity="0.48"/>
    </g>
<g transform="translate(1594.9 582.7) rotate(-16.9)">
      <rect width="62.6" height="99.8" rx="12" fill="#ff7043" opacity="0.92"/>
      <rect x="10" y="10" width="42.6" height="8" rx="4" fill="#ffffff" opacity="0.74"/>
      <rect x="10" y="26" width="32.5" height="8" rx="4" fill="#ffffff" opacity="0.48"/>
    </g>
<g transform="translate(1592.5 437.4) rotate(-12.5)">
      <rect width="107.0" height="108.7" rx="12" fill="#ffca28" opacity="0.92"/>
      <rect x="10" y="10" width="87.0" height="8" rx="4" fill="#ffffff" opacity="0.74"/>
      <rect x="10" y="26" width="55.6" height="8" rx="4" fill="#ffffff" opacity="0.48"/>
    </g>
<g transform="translate(1582.9 606.8) rotate(3.4)">
      <rect width="65.9" height="99.7" rx="12" fill="#42a5f5" opacity="0.92"/>
      <rect x="10" y="10" width="45.9" height="8" rx="4" fill="#ffffff" opacity="0.74"/>
      <rect x="10" y="26" width="34.3" height="8" rx="4" fill="#ffffff" opacity="0.48"/>
    </g>
<g transform="translate(1644.5 455.8) rotate(7.7)">
      <rect width="94.0" height="60.9" rx="12" fill="#ec407a" opacity="0.92"/>
      <rect x="10" y="10" width="74.0" height="8" rx="4" fill="#ffffff" opacity="0.74"/>
      <rect x="10" y="26" width="48.9" height="8" rx="4" fill="#ffffff" opacity="0.48"/>
    </g>
<g transform="translate(1472.9 509.0) rotate(8.4)">
      <rect width="100.2" height="92.2" rx="12" fill="#66bb6a" opacity="0.92"/>
      <rect x="10" y="10" width="80.2" height="8" rx="4" fill="#ffffff" opacity="0.74"/>
      <rect x="10" y="26" width="52.1" height="8" rx="4" fill="#ffffff" opacity="0.48"/>
    </g>
<g transform="translate(1630.2 512.8) rotate(10.4)">
      <rect width="75.0" height="94.0" rx="12" fill="#7c4dff" opacity="0.92"/>
      <rect x="10" y="10" width="55.0" height="8" rx="4" fill="#ffffff" opacity="0.74"/>
      <rect x="10" y="26" width="39.0" height="8" rx="4" fill="#ffffff" opacity="0.48"/>
    </g>
<g transform="translate(1489.7 553.4) rotate(-4.7)">
      <rect width="128.3" height="46.2" rx="12" fill="#26a69a" opacity="0.92"/>
      <rect x="10" y="10" width="108.3" height="8" rx="4" fill="#ffffff" opacity="0.74"/>
      <rect x="10" y="26" width="66.7" height="8" rx="4" fill="#ffffff" opacity="0.48"/>
    </g>
<g transform="translate(1442.8 587.8) rotate(-6.9)">
      <rect width="115.9" height="101.3" rx="12" fill="#ff7043" opacity="0.92"/>
      <rect x="10" y="10" width="95.9" height="8" rx="4" fill="#ffffff" opacity="0.74"/>
      <rect x="10" y="26" width="60.3" height="8" rx="4" fill="#ffffff" opacity="0.48"/>
    </g>
<g transform="translate(1496.6 437.1) rotate(-0.8)">
      <rect width="54.8" height="87.2" rx="12" fill="#ffca28" opacity="0.92"/>
      <rect x="10" y="10" width="34.8" height="8" rx="4" fill="#ffffff" opacity="0.74"/>
      <rect x="10" y="26" width="28.5" height="8" rx="4" fill="#ffffff" opacity="0.48"/>
    </g>
<g transform="translate(1566.4 552.5) rotate(6.5)">
      <rect width="128.0" height="95.3" rx="12" fill="#42a5f5" opacity="0.92"/>
      <rect x="10" y="10" width="108.0" height="8" rx="4" fill="#ffffff" opacity="0.74"/>
      <rect x="10" y="26" width="66.5" height="8" rx="4" fill="#ffffff" opacity="0.48"/>
    </g>
<g transform="translate(1503.2 450.1) rotate(4.0)">
      <rect width="65.3" height="103.1" rx="12" fill="#ec407a" opacity="0.92"/>
      <rect x="10" y="10" width="45.3" height="8" rx="4" fill="#ffffff" opacity="0.74"/>
      <rect x="10" y="26" width="34.0" height="8" rx="4" fill="#ffffff" opacity="0.48"/>
    </g>
<g transform="translate(1589.6 476.4) rotate(14.1)">
      <rect width="123.4" height="58.8" rx="12" fill="#66bb6a" opacity="0.92"/>
      <rect x="10" y="10" width="103.4" height="8" rx="4" fill="#ffffff" opacity="0.74"/>
      <rect x="10" y="26" width="64.2" height="8" rx="4" fill="#ffffff" opacity="0.48"/>
    </g>
<g transform="translate(1557.8 463.6) rotate(-7.1)">
      <rect width="59.8" height="107.6" rx="12" fill="#7c4dff" opacity="0.92"/>
      <rect x="10" y="10" width="39.8" height="8" rx="4" fill="#ffffff" opacity="0.74"/>
      <rect x="10" y="26" width="31.1" height="8" rx="4" fill="#ffffff" opacity="0.48"/>
    </g>
<g transform="translate(1498.3 459.2) rotate(-13.2)">
      <rect width="62.6" height="46.8" rx="12" fill="#26a69a" opacity="0.92"/>
      <rect x="10" y="10" width="42.6" height="8" rx="4" fill="#ffffff" opacity="0.74"/>
      <rect x="10" y="26" width="32.6" height="8" rx="4" fill="#ffffff" opacity="0.48"/>
    </g>
<g transform="translate(1561.6 469.4) rotate(3.8)">
      <rect width="68.8" height="60.2" rx="12" fill="#ff7043" opacity="0.92"/>
      <rect x="10" y="10" width="48.8" height="8" rx="4" fill="#ffffff" opacity="0.74"/>
      <rect x="10" y="26" width="35.8" height="8" rx="4" fill="#ffffff" opacity="0.48"/>
    </g>
<g transform="translate(1486.9 605.3) rotate(-1.1)">
      <rect width="120.1" height="78.2" rx="12" fill="#ffca28" opacity="0.92"/>
      <rect x="10" y="10" width="100.1" height="8" rx="4" fill="#ffffff" opacity="0.74"/>
      <rect x="10" y="26" width="62.5" height="8" rx="4" fill="#ffffff" opacity="0.48"/>
    </g>
<g transform="translate(1637.3 595.2) rotate(17.7)">
      <rect width="133.4" height="51.5" rx="12" fill="#42a5f5" opacity="0.92"/>
      <rect x="10" y="10" width="113.4" height="8" rx="4" fill="#ffffff" opacity="0.74"/>
      <rect x="10" y="26" width="69.3" height="8" rx="4" fill="#ffffff" opacity="0.48"/>
    </g>
<g transform="translate(1623.2 499.1) rotate(15.5)">
      <rect width="59.5" height="58.0" rx="12" fill="#ec407a" opacity="0.92"/>
      <rect x="10" y="10" width="39.5" height="8" rx="4" fill="#ffffff" opacity="0.74"/>
      <rect x="10" y="26" width="31.0" height="8" rx="4" fill="#ffffff" opacity="0.48"/>
    </g>
<g transform="translate(1588.1 451.0) rotate(13.1)">
      <rect width="105.4" height="59.4" rx="12" fill="#66bb6a" opacity="0.92"/>
      <rect x="10" y="10" width="85.4" height="8" rx="4" fill="#ffffff" opacity="0.74"/>
      <rect x="10" y="26" width="54.8" height="8" rx="4" fill="#ffffff" opacity="0.48"/>
    </g>
<g transform="translate(1409.5 436.8) rotate(-6.0)">
      <rect width="83.7" height="107.5" rx="12" fill="#7c4dff" opacity="0.92"/>
      <rect x="10" y="10" width="63.7" height="8" rx="4" fill="#ffffff" opacity="0.74"/>
      <rect x="10" y="26" width="43.5" height="8" rx="4" fill="#ffffff" opacity="0.48"/>
    </g>
<g transform="translate(1610.8 490.3) rotate(-18.0)">
      <rect width="97.0" height="43.7" rx="12" fill="#26a69a" opacity="0.92"/>
      <rect x="10" y="10" width="77.0" height="8" rx="4" fill="#ffffff" opacity="0.74"/>
      <rect x="10" y="26" width="50.5" height="8" rx="4" fill="#ffffff" opacity="0.48"/>
    </g>
<g transform="translate(1616.8 433.5) rotate(2.2)">
      <rect width="110.1" height="85.4" rx="12" fill="#ff7043" opacity="0.92"/>
      <rect x="10" y="10" width="90.1" height="8" rx="4" fill="#ffffff" opacity="0.74"/>
      <rect x="10" y="26" width="57.3" height="8" rx="4" fill="#ffffff" opacity="0.48"/>
    </g>
<g transform="translate(1524.0 456.3) rotate(11.1)">
      <rect width="135.5" height="69.0" rx="12" fill="#ffca28" opacity="0.92"/>
      <rect x="10" y="10" width="115.5" height="8" rx="4" fill="#ffffff" opacity="0.74"/>
      <rect x="10" y="26" width="70.4" height="8" rx="4" fill="#ffffff" opacity="0.48"/>
    </g>
     <text x="1332" y="758" font-family="Inter, 'SF Pro Display', -apple-system, BlinkMacSystemFont, 'Segoe UI', sans-serif" font-size="32" font-weight="900" fill="#151515" >3. Generate a board</text>
  </svg>