<svg xmlns="http://www.w3.org/2000/svg" width="1920" height="1080" viewBox="0 0 1920 1080">
    <rect width="1920" height="1080" fill="#fbfaf7"/>
    <rect x="64" y="64" width="1792" height="952" rx="42" fill="#fffdf8" stroke="#dedbd2" stroke-width="2"/>
    <text x="140" y="148" font-family="Inter, 'SF Pro Display', -apple-system, BlinkMacSystemFont, 'Segoe UI', sans-serif" font-size="24" font-weight="800" fill="#6f46ff" >LAYOUT MODES</text>
    <text x="140" y="232" font-family="Inter, 'SF Pro Display', -apple-system, BlinkMacSystemFont, 'Segoe UI', sans-serif" font-size="78" font-weight="900" fill="#151515" >11 ways to arrange ideas.</text>
    <text x="144" y="286" font-family="Inter, 'SF Pro Display', -apple-system, BlinkMacSystemFont, 'Segoe UI', sans-serif" font-size="30" font-weight="650" fill="#68635b" >From tidy grids to energetic organic compositions.</text>
    <rect x="150" y="350" width="350" height="130" rx="20" fill="#ffffff" stroke="#dedbd2" stroke-width="2"/>
        <text x="178" y="400" font-family="Inter, 'SF Pro Display', -apple-system, BlinkMacSystemFont, 'Segoe UI', sans-serif" font-size="28" font-weight="900" fill="#151515" >Random</text>
        <rect x="178" y="428" width="72" height="22" rx="11" fill="#7c4dff"/>
        <rect x="262" y="428" width="50" height="22" rx="11" fill="#26a69a"/>
        <rect x="324" y="428" width="92" height="22" rx="11" fill="#ff7043"/>
<rect x="565" y="350" width="350" height="130" rx="20" fill="#ffffff" stroke="#dedbd2" stroke-width="2"/>
        <text x="593" y="400" font-family="Inter, 'SF Pro Display', -apple-system, BlinkMacSystemFont, 'Segoe UI', sans-serif" font-size="28" font-weight="900" fill="#151515" >Grid</text>
        <rect x="593" y="428" width="72" height="22" rx="11" fill="#7c4dff"/>
        <rect x="677" y="428" width="50" height="22" rx="11" fill="#26a69a"/>
        <rect x="739" y="428" width="92" height="22" rx="11" fill="#ff7043"/>
<rect x="980" y="350" width="350" height="130" rx="20" fill="#ffffff" stroke="#dedbd2" stroke-width="2"/>
        <text x="1008" y="400" font-family="Inter, 'SF Pro Display', -apple-system, BlinkMacSystemFont, 'Segoe UI', sans-serif" font-size="28" font-weight="900" fill="#151515" >Spiral</text>
        <rect x="1008" y="428" width="72" height="22" rx="11" fill="#7c4dff"/>
        <rect x="1092" y="428" width="50" height="22" rx="11" fill="#26a69a"/>
        <rect x="1154" y="428" width="92" height="22" rx="11" fill="#ff7043"/>
<rect x="1395" y="350" width="350" height="130" rx="20" fill="#ffffff" stroke="#dedbd2" stroke-width="2"/>
        <text x="1423" y="400" font-family="Inter, 'SF Pro Display', -apple-system, BlinkMacSystemFont, 'Segoe UI', sans-serif" font-size="28" font-weight="900" fill="#151515" >Circle</text>
        <rect x="1423" y="428" width="72" height="22" rx="11" fill="#7c4dff"/>
        <rect x="1507" y="428" width="50" height="22" rx="11" fill="#26a69a"/>
        <rect x="1569" y="428" width="92" height="22" rx="11" fill="#ff7043"/>
<rect x="150" y="530" width="350" height="130" rx="20" fill="#ffffff" stroke="#dedbd2" stroke-width="2"/>
        <text x="178" y="580" font-family="Inter, 'SF Pro Display', -apple-system, BlinkMacSystemFont, 'Segoe UI', sans-serif" font-size="28" font-weight="900" fill="#151515" >Masonry</text>
        <rect x="178" y="608" width="72" height="22" rx="11" fill="#7c4dff"/>
        <rect x="262" y="608" width="50" height="22" rx="11" fill="#26a69a"/>
        <rect x="324" y="608" width="92" height="22" rx="11" fill="#ff7043"/>
<rect x="565" y="530" width="350" height="130" rx="20" fill="#ffffff" stroke="#dedbd2" stroke-width="2"/>
        <text x="593" y="580" font-family="Inter, 'SF Pro Display', -apple-system, BlinkMacSystemFont, 'Segoe UI', sans-serif" font-size="28" font-weight="900" fill="#151515" >Hex grid</text>
        <rect x="593" y="608" width="72" height="22" rx="11" fill="#7c4dff"/>
        <rect x="677" y="608" width="50" height="22" rx="11" fill="#26a69a"/>
        <rect x="739" y="608" width="92" height="22" rx="11" fill="#ff7043"/>
<rect x="980" y="530" width="350" height="130" rx="20" fill="#ffffff" stroke="#dedbd2" stroke-width="2"/>
        <text x="1008" y="580" font-family="Inter, 'SF Pro Display', -apple-system, BlinkMacSystemFont, 'Segoe UI', sans-serif" font-size="28" font-weight="900" fill="#151515" >Starburst</text>
        <rect x="1008" y="608" width="72" height="22" rx="11" fill="#7c4dff"/>
        <rect x="1092" y="608" width="50" height="22" rx="11" fill="#26a69a"/>
        <rect x="1154" y="608" width="92" height="22" rx="11" fill="#ff7043"/>
<rect x="1395" y="530" width="350" height="130" rx="20" fill="#ffffff" stroke="#dedbd2" stroke-width="2"/>
        <text x="1423" y="580" font-family="Inter, 'SF Pro Display', -apple-system, BlinkMacSystemFont, 'Segoe UI', sans-serif" font-size="28" font-weight="900" fill="#151515" >Organic</text>
        <rect x="1423" y="608" width="72" height="22" rx="11" fill="#7c4dff"/>
        <rect x="1507" y="608" width="50" height="22" rx="11" fill="#26a69a"/>
        <rect x="1569" y="608" width="92" height="22" rx="11" fill="#ff7043"/>
<rect x="150" y="710" width="350" height="130" rx="20" fill="#ffffff" stroke="#dedbd2" stroke-width="2"/>
        <text x="178" y="760" font-family="Inter, 'SF Pro Display', -apple-system, BlinkMacSystemFont, 'Segoe UI', sans-serif" font-size="28" font-weight="900" fill="#151515" >Clusters</text>
        <rect x="178" y="788" width="72" height="22" rx="11" fill="#7c4dff"/>
        <rect x="262" y="788" width="50" height="22" rx="11" fill="#26a69a"/>
        <rect x="324" y="788" width="92" height="22" rx="11" fill="#ff7043"/>
<rect x="565" y="710" width="350" height="130" rx="20" fill="#ffffff" stroke="#dedbd2" stroke-width="2"/>
        <text x="593" y="760" font-family="Inter, 'SF Pro Display', -apple-system, BlinkMacSystemFont, 'Segoe UI', sans-serif" font-size="28" font-weight="900" fill="#151515" >Zigzag</text>
        <rect x="593" y="788" width="72" height="22" rx="11" fill="#7c4dff"/>
        <rect x="677" y="788" width="50" height="22" rx="11" fill="#26a69a"/>
        <rect x="739" y="788" width="92" height="22" rx="11" fill="#ff7043"/>
<rect x="980" y="710" width="350" height="130" rx="20" fill="#ffffff" stroke="#dedbd2" stroke-width="2"/>
        <text x="1008" y="760" font-family="Inter, 'SF Pro Display', -apple-system, BlinkMacSystemFont, 'Segoe UI', sans-serif" font-size="28" font-weight="900" fill="#151515" >Vortex</text>
        <rect x="1008" y="788" width="72" height="22" rx="11" fill="#7c4dff"/>
        <rect x="1092" y="788" width="50" height="22" rx="11" fill="#26a69a"/>
        <rect x="1154" y="788" width="92" height="22" rx="11" fill="#ff7043"/>
  </svg>