<svg xmlns="http://www.w3.org/2000/svg" width="1920" height="1080" viewBox="0 0 1920 1080">
    <rect width="1920" height="1080" fill="#fbfaf7"/>
    <rect x="64" y="64" width="1792" height="952" rx="42" fill="#fffdf8" stroke="#dedbd2" stroke-width="2"/>
    <text x="140" y="148" font-family="Inter, 'SF Pro Display', -apple-system, BlinkMacSystemFont, 'Segoe UI', sans-serif" font-size="24" font-weight="800" fill="#6f46ff" >FIGMA DESIGN PLUGIN</text>
    <text x="140" y="232" font-family="Inter, 'SF Pro Display', -apple-system, BlinkMacSystemFont, 'Segoe UI', sans-serif" font-size="78" font-weight="900" fill="#151515" >MagicBits</text>
    <text x="144" y="286" font-family="Inter, 'SF Pro Display', -apple-system, BlinkMacSystemFont, 'Segoe UI', sans-serif" font-size="30" font-weight="650" fill="#68635b" >Create playful ScatterBoards in seconds.</text>
    <rect x="150" y="340" width="390" height="575" rx="28" fill="#ffffff" stroke="#dedbd2" stroke-width="2"/>
<rect x="150" y="340" width="390" height="86" rx="28" fill="#191714"/>
<text x="184" y="394" font-family="Inter, 'SF Pro Display', -apple-system, BlinkMacSystemFont, 'Segoe UI', sans-serif" font-size="31" font-weight="900" fill="#ffffff" >MagicBits</text>
<text x="184" y="452" font-family="Inter, 'SF Pro Display', -apple-system, BlinkMacSystemFont, 'Segoe UI', sans-serif" font-size="22" font-weight="800" fill="#191714" >ScatterBoard</text>
<text x="184" y="484" font-family="Inter, 'SF Pro Display', -apple-system, BlinkMacSystemFont, 'Segoe UI', sans-serif" font-size="18" font-weight="600" fill="#777067" >Whiteboard layout generator</text>
<rect x="184" y="514" width="180" height="42" rx="21" fill="#ece6ff"/><text x="206" y="542" font-family="Inter, 'SF Pro Display', -apple-system, BlinkMacSystemFont, 'Segoe UI', sans-serif" font-size="20" font-weight="700" fill="#5b2dcb" >Generate</text>
<rect x="346" y="514" width="146" height="42" rx="21" fill="#e7f6f3"/><text x="368" y="542" font-family="Inter, 'SF Pro Display', -apple-system, BlinkMacSystemFont, 'Segoe UI', sans-serif" font-size="20" font-weight="700" fill="#11756c" >Reroll</text>
<text x="184" y="600" font-family="Inter, 'SF Pro Display', -apple-system, BlinkMacSystemFont, 'Segoe UI', sans-serif" font-size="19" font-weight="700" fill="#777067" >Layout mode</text>
<text x="380" y="600" font-family="Inter, 'SF Pro Display', -apple-system, BlinkMacSystemFont, 'Segoe UI', sans-serif" font-size="22" font-weight="800" fill="#191714" >Organic</text>
<rect x="184" y="618" width="322" height="8" rx="4" fill="#eee9df"/>
<rect x="184" y="618" width="150" height="8" rx="4" fill="#7c4dff"/>
<text x="184" y="664" font-family="Inter, 'SF Pro Display', -apple-system, BlinkMacSystemFont, 'Segoe UI', sans-serif" font-size="19" font-weight="700" fill="#777067" >Copies</text>
<text x="380" y="664" font-family="Inter, 'SF Pro Display', -apple-system, BlinkMacSystemFont, 'Segoe UI', sans-serif" font-size="22" font-weight="800" fill="#191714" >36</text>
<rect x="184" y="682" width="322" height="8" rx="4" fill="#eee9df"/>
<rect x="184" y="682" width="188" height="8" rx="4" fill="#26a69a"/>
<text x="184" y="728" font-family="Inter, 'SF Pro Display', -apple-system, BlinkMacSystemFont, 'Segoe UI', sans-serif" font-size="19" font-weight="700" fill="#777067" >Scale</text>
<text x="380" y="728" font-family="Inter, 'SF Pro Display', -apple-system, BlinkMacSystemFont, 'Segoe UI', sans-serif" font-size="22" font-weight="800" fill="#191714" >60% - 140%</text>
<rect x="184" y="746" width="322" height="8" rx="4" fill="#eee9df"/>
<rect x="184" y="746" width="226" height="8" rx="4" fill="#ff7043"/>
<text x="184" y="792" font-family="Inter, 'SF Pro Display', -apple-system, BlinkMacSystemFont, 'Segoe UI', sans-serif" font-size="19" font-weight="700" fill="#777067" >Rotation</text>
<text x="380" y="792" font-family="Inter, 'SF Pro Display', -apple-system, BlinkMacSystemFont, 'Segoe UI', sans-serif" font-size="22" font-weight="800" fill="#191714" >+/- 18 deg</text>
<rect x="184" y="810" width="322" height="8" rx="4" fill="#eee9df"/>
<rect x="184" y="810" width="264" height="8" rx="4" fill="#42a5f5"/>
<rect x="184" y="828" width="322" height="58" rx="12" fill="#6f46ff"/><text x="212" y="866" font-family="Inter, 'SF Pro Display', -apple-system, BlinkMacSystemFont, 'Segoe UI', sans-serif" font-size="22" font-weight="800" fill="#ffffff" >Generate ScatterBoard</text>
     <rect x="780" y="226" width="870" height="690" rx="28" fill="#fffdf8" stroke="#ddd6c9" stroke-width="2"/>
<text x="820" y="288" font-family="Inter, 'SF Pro Display', -apple-system, BlinkMacSystemFont, 'Segoe UI', sans-serif" font-size="28" font-weight="800" fill="#191714" >ScatterBoard</text>
<text x="820" y="322" font-family="Inter, 'SF Pro Display', -apple-system, BlinkMacSystemFont, 'Segoe UI', sans-serif" font-size="19" font-weight="600" fill="#777067" >36 generated pieces</text>
<g transform="translate(1011.0 486.2) rotate(7.7)">
      <rect width="82.8" height="47.3" rx="12" fill="#7c4dff" opacity="0.92"/>
      <rect x="10" y="10" width="62.8" height="8" rx="4" fill="#ffffff" opacity="0.74"/>
      <rect x="10" y="26" width="43.1" height="8" rx="4" fill="#ffffff" opacity="0.48"/>
    </g>
<g transform="translate(1447.6 390.6) rotate(-10.3)">
      <rect width="112.9" height="49.3" rx="12" fill="#26a69a" opacity="0.92"/>
      <rect x="10" y="10" width="92.9" height="8" rx="4" fill="#ffffff" opacity="0.74"/>
      <rect x="10" y="26" width="58.7" height="8" rx="4" fill="#ffffff" opacity="0.48"/>
    </g>
<g transform="translate(1405.1 483.2) rotate(0.7)">
      <rect width="83.5" height="66.9" rx="12" fill="#ff7043" opacity="0.92"/>
      <rect x="10" y="10" width="63.5" height="8" rx="4" fill="#ffffff" opacity="0.74"/>
      <rect x="10" y="26" width="43.4" height="8" rx="4" fill="#ffffff" opacity="0.48"/>
    </g>
<g transform="translate(1300.1 544.2) rotate(-3.6)">
      <rect width="93.3" height="88.8" rx="12" fill="#ffca28" opacity="0.92"/>
      <rect x="10" y="10" width="73.3" height="8" rx="4" fill="#ffffff" opacity="0.74"/>
      <rect x="10" y="26" width="48.5" height="8" rx="4" fill="#ffffff" opacity="0.48"/>
    </g>
<g transform="translate(929.3 714.4) rotate(-7.1)">
      <rect width="117.4" height="44.5" rx="12" fill="#42a5f5" opacity="0.92"/>
      <rect x="10" y="10" width="97.4" height="8" rx="4" fill="#ffffff" opacity="0.74"/>
      <rect x="10" y="26" width="61.0" height="8" rx="4" fill="#ffffff" opacity="0.48"/>
    </g>
<g transform="translate(928.3 636.1) rotate(15.3)">
      <rect width="58.1" height="67.3" rx="12" fill="#ec407a" opacity="0.92"/>
      <rect x="10" y="10" width="38.1" height="8" rx="4" fill="#ffffff" opacity="0.74"/>
      <rect x="10" y="26" width="30.2" height="8" rx="4" fill="#ffffff" opacity="0.48"/>
    </g>
<g transform="translate(1418.9 712.2) rotate(-5.0)">
      <rect width="133.3" height="45.3" rx="12" fill="#66bb6a" opacity="0.92"/>
      <rect x="10" y="10" width="113.3" height="8" rx="4" fill="#ffffff" opacity="0.74"/>
      <rect x="10" y="26" width="69.3" height="8" rx="4" fill="#ffffff" opacity="0.48"/>
    </g>
<g transform="translate(1396.4 363.9) rotate(-11.6)">
      <rect width="71.6" height="102.2" rx="12" fill="#7c4dff" opacity="0.92"/>
      <rect x="10" y="10" width="51.6" height="8" rx="4" fill="#ffffff" opacity="0.74"/>
      <rect x="10" y="26" width="37.2" height="8" rx="4" fill="#ffffff" opacity="0.48"/>
    </g>
<g transform="translate(1041.6 783.6) rotate(8.1)">
      <rect width="115.6" height="107.7" rx="12" fill="#26a69a" opacity="0.92"/>
      <rect x="10" y="10" width="95.6" height="8" rx="4" fill="#ffffff" opacity="0.74"/>
      <rect x="10" y="26" width="60.1" height="8" rx="4" fill="#ffffff" opacity="0.48"/>
    </g>
<g transform="translate(949.3 579.0) rotate(-3.1)">
      <rect width="102.7" height="82.0" rx="12" fill="#ff7043" opacity="0.92"/>
      <rect x="10" y="10" width="82.7" height="8" rx="4" fill="#ffffff" opacity="0.74"/>
      <rect x="10" y="26" width="53.4" height="8" rx="4" fill="#ffffff" opacity="0.48"/>
    </g>
<g transform="translate(1020.8 656.7) rotate(9.3)">
      <rect width="91.3" height="45.3" rx="12" fill="#ffca28" opacity="0.92"/>
      <rect x="10" y="10" width="71.3" height="8" rx="4" fill="#ffffff" opacity="0.74"/>
      <rect x="10" y="26" width="47.5" height="8" rx="4" fill="#ffffff" opacity="0.48"/>
    </g>
<g transform="translate(936.9 365.8) rotate(3.0)">
      <rect width="110.8" height="70.0" rx="12" fill="#42a5f5" opacity="0.92"/>
      <rect x="10" y="10" width="90.8" height="8" rx="4" fill="#ffffff" opacity="0.74"/>
      <rect x="10" y="26" width="57.6" height="8" rx="4" fill="#ffffff" opacity="0.48"/>
    </g>
<g transform="translate(1039.3 845.4) rotate(-16.5)">
      <rect width="65.7" height="53.5" rx="12" fill="#ec407a" opacity="0.92"/>
      <rect x="10" y="10" width="45.7" height="8" rx="4" fill="#ffffff" opacity="0.74"/>
      <rect x="10" y="26" width="34.2" height="8" rx="4" fill="#ffffff" opacity="0.48"/>
    </g>
<g transform="translate(1209.4 487.1) rotate(0.4)">
      <rect width="80.6" height="93.3" rx="12" fill="#66bb6a" opacity="0.92"/>
      <rect x="10" y="10" width="60.6" height="8" rx="4" fill="#ffffff" opacity="0.74"/>
      <rect x="10" y="26" width="41.9" height="8" rx="4" fill="#ffffff" opacity="0.48"/>
    </g>
<g transform="translate(983.8 619.0) rotate(-4.1)">
      <rect width="70.0" height="85.3" rx="12" fill="#7c4dff" opacity="0.92"/>
      <rect x="10" y="10" width="50.0" height="8" rx="4" fill="#ffffff" opacity="0.74"/>
      <rect x="10" y="26" width="36.4" height="8" rx="4" fill="#ffffff" opacity="0.48"/>
    </g>
<g transform="translate(945.4 382.1) rotate(-17.0)">
      <rect width="111.2" height="110.7" rx="12" fill="#26a69a" opacity="0.92"/>
      <rect x="10" y="10" width="91.2" height="8" rx="4" fill="#ffffff" opacity="0.74"/>
      <rect x="10" y="26" width="57.8" height="8" rx="4" fill="#ffffff" opacity="0.48"/>
    </g>
<g transform="translate(1023.1 532.1) rotate(-6.5)">
      <rect width="119.4" height="65.9" rx="12" fill="#ff7043" opacity="0.92"/>
      <rect x="10" y="10" width="99.4" height="8" rx="4" fill="#ffffff" opacity="0.74"/>
      <rect x="10" y="26" width="62.1" height="8" rx="4" fill="#ffffff" opacity="0.48"/>
    </g>
<g transform="translate(1540.4 623.6) rotate(-16.8)">
      <rect width="111.7" height="101.1" rx="12" fill="#ffca28" opacity="0.92"/>
      <rect x="10" y="10" width="91.7" height="8" rx="4" fill="#ffffff" opacity="0.74"/>
      <rect x="10" y="26" width="58.1" height="8" rx="4" fill="#ffffff" opacity="0.48"/>
    </g>
<g transform="translate(1303.4 538.8) rotate(14.2)">
      <rect width="67.4" height="69.0" rx="12" fill="#42a5f5" opacity="0.92"/>
      <rect x="10" y="10" width="47.4" height="8" rx="4" fill="#ffffff" opacity="0.74"/>
      <rect x="10" y="26" width="35.0" height="8" rx="4" fill="#ffffff" opacity="0.48"/>
    </g>
<g transform="translate(1187.6 827.5) rotate(-9.8)">
      <rect width="104.4" height="105.8" rx="12" fill="#ec407a" opacity="0.92"/>
      <rect x="10" y="10" width="84.4" height="8" rx="4" fill="#ffffff" opacity="0.74"/>
      <rect x="10" y="26" width="54.3" height="8" rx="4" fill="#ffffff" opacity="0.48"/>
    </g>
<g transform="translate(1275.1 575.5) rotate(-6.2)">
      <rect width="62.9" height="89.8" rx="12" fill="#66bb6a" opacity="0.92"/>
      <rect x="10" y="10" width="42.9" height="8" rx="4" fill="#ffffff" opacity="0.74"/>
      <rect x="10" y="26" width="32.7" height="8" rx="4" fill="#ffffff" opacity="0.48"/>
    </g>
<g transform="translate(1007.8 609.4) rotate(4.0)">
      <rect width="108.6" height="75.5" rx="12" fill="#7c4dff" opacity="0.92"/>
      <rect x="10" y="10" width="88.6" height="8" rx="4" fill="#ffffff" opacity="0.74"/>
      <rect x="10" y="26" width="56.5" height="8" rx="4" fill="#ffffff" opacity="0.48"/>
    </g>
<g transform="translate(1488.2 661.9) rotate(9.9)">
      <rect width="99.3" height="48.9" rx="12" fill="#26a69a" opacity="0.92"/>
      <rect x="10" y="10" width="79.3" height="8" rx="4" fill="#ffffff" opacity="0.74"/>
      <rect x="10" y="26" width="51.6" height="8" rx="4" fill="#ffffff" opacity="0.48"/>
    </g>
<g transform="translate(1351.4 715.4) rotate(-5.0)">
      <rect width="68.7" height="72.3" rx="12" fill="#ff7043" opacity="0.92"/>
      <rect x="10" y="10" width="48.7" height="8" rx="4" fill="#ffffff" opacity="0.74"/>
      <rect x="10" y="26" width="35.7" height="8" rx="4" fill="#ffffff" opacity="0.48"/>
    </g>
<g transform="translate(887.6 348.3) rotate(2.9)">
      <rect width="58.9" height="48.4" rx="12" fill="#ffca28" opacity="0.92"/>
      <rect x="10" y="10" width="38.9" height="8" rx="4" fill="#ffffff" opacity="0.74"/>
      <rect x="10" y="26" width="30.7" height="8" rx="4" fill="#ffffff" opacity="0.48"/>
    </g>
<g transform="translate(1500.3 563.6) rotate(-2.9)">
      <rect width="85.6" height="106.8" rx="12" fill="#42a5f5" opacity="0.92"/>
      <rect x="10" y="10" width="65.6" height="8" rx="4" fill="#ffffff" opacity="0.74"/>
      <rect x="10" y="26" width="44.5" height="8" rx="4" fill="#ffffff" opacity="0.48"/>
    </g>
<g transform="translate(1489.4 728.9) rotate(5.4)">
      <rect width="86.8" height="52.5" rx="12" fill="#ec407a" opacity="0.92"/>
      <rect x="10" y="10" width="66.8" height="8" rx="4" fill="#ffffff" opacity="0.74"/>
      <rect x="10" y="26" width="45.1" height="8" rx="4" fill="#ffffff" opacity="0.48"/>
    </g>
<g transform="translate(1187.7 535.0) rotate(0.6)">
      <rect width="65.8" height="64.8" rx="12" fill="#66bb6a" opacity="0.92"/>
      <rect x="10" y="10" width="45.8" height="8" rx="4" fill="#ffffff" opacity="0.74"/>
      <rect x="10" y="26" width="34.2" height="8" rx="4" fill="#ffffff" opacity="0.48"/>
    </g>
<g transform="translate(1199.1 554.1) rotate(-8.6)">
      <rect width="105.8" height="83.8" rx="12" fill="#7c4dff" opacity="0.92"/>
      <rect x="10" y="10" width="85.8" height="8" rx="4" fill="#ffffff" opacity="0.74"/>
      <rect x="10" y="26" width="55.0" height="8" rx="4" fill="#ffffff" opacity="0.48"/>
    </g>
<g transform="translate(1195.5 595.0) rotate(7.5)">
      <rect width="106.3" height="89.1" rx="12" fill="#26a69a" opacity="0.92"/>
      <rect x="10" y="10" width="86.3" height="8" rx="4" fill="#ffffff" opacity="0.74"/>
      <rect x="10" y="26" width="55.3" height="8" rx="4" fill="#ffffff" opacity="0.48"/>
    </g>
<g transform="translate(1390.8 723.7) rotate(7.8)">
      <rect width="74.7" height="47.9" rx="12" fill="#ff7043" opacity="0.92"/>
      <rect x="10" y="10" width="54.7" height="8" rx="4" fill="#ffffff" opacity="0.74"/>
      <rect x="10" y="26" width="38.8" height="8" rx="4" fill="#ffffff" opacity="0.48"/>
    </g>
<g transform="translate(1286.9 624.2) rotate(-15.4)">
      <rect width="79.2" height="90.5" rx="12" fill="#ffca28" opacity="0.92"/>
      <rect x="10" y="10" width="59.2" height="8" rx="4" fill="#ffffff" opacity="0.74"/>
      <rect x="10" y="26" width="41.2" height="8" rx="4" fill="#ffffff" opacity="0.48"/>
    </g>
<g transform="translate(1448.4 417.5) rotate(11.1)">
      <rect width="113.5" height="109.5" rx="12" fill="#42a5f5" opacity="0.92"/>
      <rect x="10" y="10" width="93.5" height="8" rx="4" fill="#ffffff" opacity="0.74"/>
      <rect x="10" y="26" width="59.0" height="8" rx="4" fill="#ffffff" opacity="0.48"/>
    </g>
<g transform="translate(906.6 838.5) rotate(-3.4)">
      <rect width="123.6" height="57.8" rx="12" fill="#ec407a" opacity="0.92"/>
      <rect x="10" y="10" width="103.6" height="8" rx="4" fill="#ffffff" opacity="0.74"/>
      <rect x="10" y="26" width="64.3" height="8" rx="4" fill="#ffffff" opacity="0.48"/>
    </g>
<g transform="translate(1040.3 843.9) rotate(-12.6)">
      <rect width="65.0" height="77.5" rx="12" fill="#66bb6a" opacity="0.92"/>
      <rect x="10" y="10" width="45.0" height="8" rx="4" fill="#ffffff" opacity="0.74"/>
      <rect x="10" y="26" width="33.8" height="8" rx="4" fill="#ffffff" opacity="0.48"/>
    </g>
<g transform="translate(1308.3 793.9) rotate(10.4)">
      <rect width="103.0" height="48.0" rx="12" fill="#7c4dff" opacity="0.92"/>
      <rect x="10" y="10" width="83.0" height="8" rx="4" fill="#ffffff" opacity="0.74"/>
      <rect x="10" y="26" width="53.6" height="8" rx="4" fill="#ffffff" opacity="0.48"/>
    </g>
<g transform="translate(879.2 352.7) rotate(-12.9)">
      <rect width="135.5" height="79.5" rx="12" fill="#26a69a" opacity="0.92"/>
      <rect x="10" y="10" width="115.5" height="8" rx="4" fill="#ffffff" opacity="0.74"/>
      <rect x="10" y="26" width="70.5" height="8" rx="4" fill="#ffffff" opacity="0.48"/>
    </g>
<g transform="translate(1138.4 357.9) rotate(-12.5)">
      <rect width="66.5" height="80.7" rx="12" fill="#ff7043" opacity="0.92"/>
      <rect x="10" y="10" width="46.5" height="8" rx="4" fill="#ffffff" opacity="0.74"/>
      <rect x="10" y="26" width="34.6" height="8" rx="4" fill="#ffffff" opacity="0.48"/>
    </g>
<g transform="translate(984.7 484.7) rotate(6.2)">
      <rect width="81.3" height="51.3" rx="12" fill="#ffca28" opacity="0.92"/>
      <rect x="10" y="10" width="61.3" height="8" rx="4" fill="#ffffff" opacity="0.74"/>
      <rect x="10" y="26" width="42.3" height="8" rx="4" fill="#ffffff" opacity="0.48"/>
    </g>
<g transform="translate(1298.7 588.7) rotate(6.8)">
      <rect width="68.5" height="64.9" rx="12" fill="#42a5f5" opacity="0.92"/>
      <rect x="10" y="10" width="48.5" height="8" rx="4" fill="#ffffff" opacity="0.74"/>
      <rect x="10" y="26" width="35.6" height="8" rx="4" fill="#ffffff" opacity="0.48"/>
    </g>
<g transform="translate(1544.6 708.7) rotate(11.8)">
      <rect width="71.0" height="87.7" rx="12" fill="#ec407a" opacity="0.92"/>
      <rect x="10" y="10" width="51.0" height="8" rx="4" fill="#ffffff" opacity="0.74"/>
      <rect x="10" y="26" width="36.9" height="8" rx="4" fill="#ffffff" opacity="0.48"/>
    </g>
<g transform="translate(977.2 358.9) rotate(2.7)">
      <rect width="56.2" height="87.7" rx="12" fill="#66bb6a" opacity="0.92"/>
      <rect x="10" y="10" width="36.2" height="8" rx="4" fill="#ffffff" opacity="0.74"/>
      <rect x="10" y="26" width="29.2" height="8" rx="4" fill="#ffffff" opacity="0.48"/>
    </g>
     <rect x="1410" y="130" width="333" height="42" rx="21" fill="#e7f6f3"/><text x="1432" y="158" font-family="Inter, 'SF Pro Display', -apple-system, BlinkMacSystemFont, 'Segoe UI', sans-serif" font-size="20" font-weight="700" fill="#11756c" >No network access</text>
  </svg>