<svg width="128" height="128" viewBox="0 0 128 128" fill="none" xmlns="http://www.w3.org/2000/svg">
<g clip-path="url(#clip0_155_2)">
<path d="M0 40C0 17.9086 17.9086 0 40 0H88C110.091 0 128 17.9086 128 40V88C128 110.091 110.091 128 88 128H40C17.9086 128 0 110.091 0 88V40Z" fill="url(#paint0_linear_155_2)"/>
<path d="M47.2763 107.364C54.1877 111.33 65.8162 115.699 77.8413 111.97C86.1661 108.232 102.689 97.2969 107.208 92.6822C99.4485 90.9204 59.4154 98.2866 47.2763 107.364Z" fill="url(#paint1_linear_155_2)"/>
<path d="M16.6666 51.0667C16.9333 37.4667 24 31.8667 28.5333 28.8L51.0666 17.4667C57.4666 14.8 66 12.6667 76.9333 16.9334L99.4666 27.8667C105.067 31.0667 111.467 36.8 111.467 50.5334L111.2 76C110.933 87.4667 104.4 95.0667 98.6666 99.0667L79.4666 109.2C70.4 114.133 59.0666 114.4 49.4666 109.867L27.8666 98.1334C22.8 94.8 16.8 87.7334 16.6666 75.3334V51.0667Z" fill="#E6E6E5"/>
<path d="M65.0667 76.9334C65.0667 67.3334 70.5333 58.5334 80.2666 53.0667L95.6 45.2C105.067 40.4 111.2 42.2667 111.333 51.3334L111.2 74.6667C111.2 84.6667 108.267 92 99.6 98.6667L80.8 108.533C71.8666 113.333 65.0667 110.533 65.0667 98.5334V76.9334Z" fill="#CECECD"/>
<path d="M62.8001 98.5333C62.8001 109.2 56.8001 112.933 48.5334 109.2L28.2667 98.4C22.6667 94.9333 16.8 87.4667 16.8 76L17.0667 51.2C17.0667 45.3333 22.6667 39.2 31.4667 44L48.9334 53.0667C55.8667 56.5333 62.8001 65.2 62.8001 76V98.5333Z" fill="#F4F4F4"/>
<path d="M50.2666 18.6667C56.1333 15.7333 65.4666 12.8 77.1999 16.9333L97.4666 27.2C105.467 31.4667 105.067 37.8667 96.6666 42L78.3999 51.3333C71.7333 54.8 60.1333 56.5333 51.3333 52.2667L31.9999 42.1333C23.9999 37.8667 23.1999 31.7333 30.6666 28.2667L50.2666 18.6667Z" fill="#F4F4F4"/>
<path d="M26.6666 30L50.5333 17.8666C55.2 15.7333 63.2 13.8666 67.3333 14.8C62.1333 14.8 57.3333 15.8666 52 18.1333L31.2 28.2666C26.1333 30.6666 25.0666 33.8666 26.1333 36.2666C24.8 34.5333 25.3333 31.4666 26.6666 30Z" fill="white"/>
<path d="M30.1333 43.4667C32.5333 44.2667 42.8 49.6 47.8667 52.2667C53.4667 54.5333 58.9333 59.8667 61.6 67.3333C59.2 63.2 56.5333 57.6 48.5333 53.2L33.3333 45.4667C29.8667 43.7333 27.4667 42.4 24 42.5333C25.4667 42 28.1333 42.6667 30.1333 43.4667Z" fill="white"/>
<path d="M97.4667 27.2C101.067 28.8 105.467 31.8667 107.467 35.3333C109.467 39.2 105.467 42 100.667 42.6667C103.867 41.3333 107.867 38.4 106.533 35.4667C105.467 33.2 102.533 29.6 97.4667 27.2Z" fill="#E6E6E5"/>
<path d="M70.9334 33.3333C72 35.4666 69.4667 37.8666 64.0001 37.8666C59.2001 37.8666 55.3334 35.2 57.2001 32C59.4667 29.0666 68.6667 28.2666 70.9334 32.2666V33.3333Z" fill="#040304"/>
<path d="M35.1401 70.5775C39.1401 69.2442 43.8068 75.6442 42.4734 80.7108C40.7401 85.5108 33.8068 82.1775 32.4734 75.9109C31.9401 73.3775 33.0068 70.7109 35.1401 70.5775Z" fill="#040203"/>
<path d="M24.8864 79.6445C28.8864 78.3111 33.5531 84.7111 32.2198 89.7778C30.4864 94.5778 23.5531 91.2445 22.2198 84.9778C21.6864 82.4445 22.7531 79.7778 24.8864 79.6445Z" fill="#040203"/>
<path d="M47.1876 61.8131C51.1876 60.4798 55.8543 66.8798 54.5209 71.9464C52.7876 76.7464 45.8543 73.4131 44.5209 67.1464C43.9876 64.6131 45.0543 61.9464 47.1876 61.8131Z" fill="#040203"/>
<path d="M74.6667 63.8667C80.2667 59.2 83.3334 63.8667 80.5334 69.8667C77.2 76.5333 70.6667 77.2 71.4667 69.6C72 67.3333 73.2 65.2 74.6667 63.8667Z" fill="#040203"/>
<path d="M86.1333 72.2667C90.5333 68.1333 94.5333 71.2 92.6667 76.8C90.1333 83.3334 83.3333 85.6 83.4667 78.1334C83.7333 76 84.8 73.8667 86.1333 72.2667Z" fill="#040203"/>
<path d="M97.6605 52.6033C102.921 47.119 106.8 50.1332 104.933 56.5332C102.267 63.1999 95.6 65.4665 95.2 58.9332C95.2 56.5332 96.2845 54.0379 97.6605 52.6033Z" fill="#040203"/>
<path d="M97.4666 81.4667C101.6 75.4667 106.4 76.9333 104.8 84.5333C102.267 91.4667 94.2666 93.8667 95.2 85.6L95.6 84.1333L97.4666 81.4667Z" fill="#040203"/>
<path d="M74.1333 93.2C79.3333 87.4667 82.8 91.4667 80.6667 97.8667C78 104 72 106.533 71.4667 100C71.3333 98 72.5333 94.8 74.1333 93.2Z" fill="#040203"/>
<ellipse cx="64.3652" cy="33.6981" rx="8.08862" ry="4.50031" fill="#040304"/>
</g>
<path d="M40 1H88C109.539 1 127 18.4609 127 40V88C127 109.539 109.539 127 88 127H40C18.4609 127 1 109.539 1 88V40C1 18.4609 18.4609 1 40 1Z" stroke="#4A4A4A" stroke-width="2"/>
<defs>
<linearGradient id="paint0_linear_155_2" x1="64" y1="33.7067" x2="107.817" y2="188.854" gradientUnits="userSpaceOnUse">
<stop stop-color="#131414"/>
<stop offset="0.115385" stop-color="#383838"/>
<stop offset="1" stop-color="#827D82"/>
</linearGradient>
<linearGradient id="paint1_linear_155_2" x1="63.5601" y1="113.706" x2="73.8038" y2="94.2654" gradientUnits="userSpaceOnUse">
<stop stop-color="#A7A5A6"/>
<stop offset="1" stop-color="#5D595B"/>
</linearGradient>
<clipPath id="clip0_155_2">
<path d="M0 40C0 17.9086 17.9086 0 40 0H88C110.091 0 128 17.9086 128 40V88C128 110.091 110.091 128 88 128H40C17.9086 128 0 110.091 0 88V40Z" fill="white"/>
</clipPath>
</defs>
</svg>
